<svg id="Layer_1" data-name="Layer 1" xmlns="http://www.w3.org/2000/svg" viewBox="0 0 198.88 49.59"><defs><style>.cls-1{fill:#231f20;}</style></defs><title>rater_logo_1.0</title><path class="cls-1" d="M311.19,281.7c0-8.4-3.34-11.7-6.46-12.8,3.44-1.41,7.44-4.91,7.44-11.76,0-7.48-5.65-13.73-17.33-13.73H191v6.75l-2.22-6.75H169.94l-15.31,48.43a59.21,59.21,0,0,1-.42-8.07V281.7c0-8.4-3.34-11.7-6.47-12.8,3.44-1.41,7.45-4.91,7.45-11.76,0-7.48-5.65-13.73-17.33-13.73H113.29V293h14.1V274.26h5.13c6.41,0,7.43,2.35,7.43,6.63v1.28c0,5.1.21,8.7,1.05,10.83h27.42l2.87-9.65h15.56l3,9.65H205l-12.75-38.82h12.85V293h14.55V254.18h12.95V293h36l1.62-10.77H246.62v-9.3h19.05V262.16H246.62v-8h23.65V293h14.11V274.26h5.12c6.41,0,7.43,2.35,7.43,6.63v1.28c0,5.1.22,8.7,1.06,10.83h13.84a47.19,47.19,0,0,1-.64-9.23ZM134.12,264.14h-6.73v-10.6h6.79c4.45,0,6.54,1.93,6.54,5.25S139,264.14,134.12,264.14Zm39.57,8.45c2-7.14,3.91-14.22,5.06-19.56h.19c1.13,4.84,3,11.76,5.36,19.56Zm117.41-8.45h-6.72v-10.6h6.79c4.44,0,6.53,1.93,6.53,5.25S295.94,264.14,291.1,264.14Z" transform="translate(-113.29 -243.41)"/></svg>